<?xml version="1.0" ?>
<svg xmlns="http://www.w3.org/2000/svg"
     fill="#fff"
     width="138"
     height="79"
     viewBox="0 0 139 79"
     focusable="false"
     class="AejxWc">
  <path d="M15.38 34.2c-2.16 0-4.18-.4-6.07-1.16a15.34 15.34 0 0 1-8.16-8.17A15.72 15.72 0 0 1 0 18.83c0-2.16.38-4.17 1.15-6.04.8-1.86 1.88-3.49 3.28-4.88a15.49 15.49 0 0 1 10.95-4.44c1.56 0 3 .2 4.3.58 1.32.35 2.52.89 3.62 1.6 1.12.7 2.14 1.59 3.07 2.63l-3.9 3.77a9.8 9.8 0 0 0-1.92-1.76 8.22 8.22 0 0 0-2.3-1.15 9.17 9.17 0 0 0-2.83-.41 10 10 0 0 0-5 1.27 9.2 9.2 0 0 0-3.53 3.5 10.44 10.44 0 0 0-1.31 5.33c0 2.03.44 3.8 1.31 5.34a9.5 9.5 0 0 0 3.53 3.53c1.5.82 3.17 1.23 5 1.23 1.1 0 2.1-.15 3.04-.45.93-.3 1.77-.74 2.54-1.31.8-.6 1.52-1.3 2.17-2.1l3.94 3.74a15.78 15.78 0 0 1-3.24 2.96c-1.2.8-2.52 1.4-3.94 1.8-1.42.42-2.94.62-4.55.62Z"/>
  <path d="M15.38 34.2c-2.16 0-4.18-.4-6.07-1.16a15.34 15.34 0 0 1-8.16-8.17A15.72 15.72 0 0 1 0 18.83c0-2.16.38-4.17 1.15-6.04.8-1.86 1.88-3.49 3.28-4.88a15.49 15.49 0 0 1 10.95-4.44c1.56 0 3 .2 4.3.58 1.32.35 2.52.89 3.62 1.6 1.12.7 2.14 1.59 3.07 2.63l-3.9 3.77a9.8 9.8 0 0 0-1.92-1.76 8.22 8.22 0 0 0-2.3-1.15 9.17 9.17 0 0 0-2.83-.41 10 10 0 0 0-5 1.27 9.2 9.2 0 0 0-3.53 3.5 10.44 10.44 0 0 0-1.31 5.33c0 2.03.44 3.8 1.31 5.34a9.5 9.5 0 0 0 3.53 3.53c1.5.82 3.17 1.23 5 1.23 1.1 0 2.1-.15 3.04-.45.93-.3 1.77-.74 2.54-1.31.8-.6 1.52-1.3 2.17-2.1l3.94 3.74a15.78 15.78 0 0 1-3.24 2.96c-1.2.8-2.52 1.4-3.94 1.8-1.42.42-2.94.62-4.55.62ZM37.57 34.2c-2.57 0-4.5-.8-5.78-2.39-1.29-1.59-1.93-3.75-1.93-6.49V12.59h5.37v12.07a5.1 5.1 0 0 0 1.03 3.37c.71.8 1.61 1.2 2.7 1.2 1.07 0 1.97-.27 2.71-.79a5.15 5.15 0 0 0 1.68-2.17c.41-.9.62-1.9.62-3V12.59h5.37v20.94H44.3v-2.62h-.33a6.37 6.37 0 0 1-1.6 1.72 7.87 7.87 0 0 1-4.8 1.56ZM53.75 33.53V4.13h5.37v29.4h-5.37ZM62.25 12.59h3.65V6.67h5.37v5.92h5.13v4.6h-5.13v8.66c0 .96.2 1.7.62 2.22.41.5 1.1.74 2.05.74.55 0 1-.08 1.35-.24.39-.17.81-.39 1.27-.66v5.25c-.57.22-1.17.39-1.8.5-.6.13-1.24.2-1.93.2-2.16 0-3.85-.61-5.08-1.84-1.23-1.26-1.85-2.99-1.85-5.18v-9.65h-3.65v-4.6ZM87.54 34.2c-2.57 0-4.5-.8-5.78-2.39-1.28-1.59-1.93-3.75-1.93-6.49V12.59h5.38v12.07a5.1 5.1 0 0 0 1.02 3.37c.71.8 1.62 1.2 2.7 1.2s1.98-.27 2.72-.79a5.15 5.15 0 0 0 1.68-2.17c.4-.9.61-1.9.61-3V12.59h5.38v20.94h-5.05v-2.62h-.33a6.37 6.37 0 0 1-1.6 1.72 7.87 7.87 0 0 1-4.8 1.56ZM103.68 33.53V12.6h5.04v2.8h.33c.36-.67.82-1.24 1.4-1.73a6.91 6.91 0 0 1 4.63-1.69c.55 0 1.04.04 1.48.13.43.08.82.19 1.14.32v5.38c-.57-.21-1.14-.4-1.72-.53a6.1 6.1 0 0 0-1.76-.25 4.78 4.78 0 0 0-4.55 3c-.41.9-.62 1.93-.62 3.08v10.43h-5.37ZM128.87 34.2c-2.1 0-4-.49-5.66-1.45a10.57 10.57 0 0 1-3.9-3.94 11.54 11.54 0 0 1-1.4-5.7 11.35 11.35 0 0 1 5.22-9.62 10 10 0 0 1 5.53-1.56c2.25 0 4.13.48 5.66 1.44a9.31 9.31 0 0 1 3.5 3.86 11.7 11.7 0 0 1 1.18 5.3 14.22 14.22 0 0 1-.12 1.8H123.2a6.07 6.07 0 0 0 2.75 4.36c.9.5 1.9.74 3 .74a6 6 0 0 0 3.23-.82 6.37 6.37 0 0 0 2.05-2.14l4.35 2.14a11.6 11.6 0 0 1-3.85 4.1 10.91 10.91 0 0 1-5.87 1.48Zm-5.45-13.68h10.41a3.7 3.7 0 0 0-.4-1.44 4.8 4.8 0 0 0-2.63-2.34 5 5 0 0 0-2.1-.41c-1.03 0-1.99.27-2.86.82a5.75 5.75 0 0 0-2.42 3.37ZM31 7.35v-3.4L28.5 0h1.34l1.67 2.77h.06L33.21 0h1.34l-2.44 3.94v3.41H31ZM36.78 7.52a2.64 2.64 0 0 1-2.39-1.37 2.9 2.9 0 0 1-.34-1.42c0-.52.11-.99.34-1.4a2.62 2.62 0 0 1 2.4-1.38 2.64 2.64 0 0 1 2.37 1.38c.23.41.35.88.35 1.4 0 .52-.12 1-.35 1.42a2.64 2.64 0 0 1-2.38 1.37Zm0-1.02c.3 0 .56-.07.8-.2.25-.15.45-.35.6-.61.16-.27.23-.59.23-.96s-.07-.68-.23-.94a1.54 1.54 0 0 0-.6-.6 1.61 1.61 0 0 0-2.21.6c-.15.26-.23.57-.23.94s.08.7.23.96c.16.26.36.46.61.6.26.14.52.2.8.2ZM42.38 7.52c-.64 0-1.13-.2-1.46-.58a2.41 2.41 0 0 1-.48-1.58V2.12h1.1V5.2c0 .43.11.76.31.97.22.21.48.32.8.32a1.25 1.25 0 0 0 1.2-.8c.12-.24.18-.5.18-.77V2.12h1.1v5.23h-1.04v-.7h-.06c-.1.16-.23.3-.4.43a2.1 2.1 0 0 1-1.25.44ZM46.43 7.35V2.12h1.04v.77h.07c.08-.18.2-.34.34-.48.16-.13.34-.24.54-.33a1.7 1.7 0 0 1 1-.09l.27.07v1.15c-.13-.05-.26-.1-.4-.13a1.6 1.6 0 0 0-.41-.05c-.26 0-.5.07-.7.21-.2.14-.35.33-.47.56-.12.23-.17.5-.17.78v2.77h-1.11ZM7.96 70.13l-7.8-29.4h6.16l4.02 16.5.49 3.08h.33l.65-3.08 5.17-16.5h5.45l5.05 16.5.65 3h.33l.5-3 3.97-16.5h6.16l-7.6 29.4h-5.94l-5-17.74-.66-3.17h-.33l-.65 3.17-5.25 17.74h-5.7ZM49 70.79a10.57 10.57 0 0 1-9.56-5.38 11.54 11.54 0 0 1-1.4-5.71c0-2 .47-3.85 1.4-5.55a10.9 10.9 0 0 1 3.8-4.06 9.99 9.99 0 0 1 5.55-1.56c2.24 0 4.12.47 5.66 1.43a9.31 9.31 0 0 1 3.48 3.86 11.7 11.7 0 0 1 1.2 5.3 14.09 14.09 0 0 1-.13 1.8H43.33a6.08 6.08 0 0 0 2.75 4.36c.9.5 1.9.74 3 .74a6 6 0 0 0 3.23-.82 6.36 6.36 0 0 0 2.05-2.14l4.35 2.14a11.6 11.6 0 0 1-3.85 4.1 10.9 10.9 0 0 1-5.87 1.49ZM43.53 57.1h10.41a3.7 3.7 0 0 0-.4-1.44 4.8 4.8 0 0 0-2.63-2.34 5 5 0 0 0-2.1-.41c-1.03 0-1.99.27-2.86.82a5.76 5.76 0 0 0-2.42 3.37ZM72.39 70.79a10.57 10.57 0 0 1-9.56-5.38 11.54 11.54 0 0 1-1.39-5.71c0-2 .46-3.85 1.4-5.55a10.9 10.9 0 0 1 3.8-4.06 9.99 9.99 0 0 1 5.55-1.56c2.24 0 4.12.47 5.66 1.43a9.31 9.31 0 0 1 3.48 3.86 11.7 11.7 0 0 1 1.2 5.3 14.04 14.04 0 0 1-.13 1.8H66.73a6.08 6.08 0 0 0 2.75 4.36c.9.5 1.9.74 3 .74a6 6 0 0 0 3.23-.82 6.36 6.36 0 0 0 2.05-2.14l4.35 2.14a11.6 11.6 0 0 1-3.85 4.1 10.9 10.9 0 0 1-5.87 1.49ZM66.94 57.1h10.41a3.7 3.7 0 0 0-.4-1.44 4.8 4.8 0 0 0-2.63-2.34 5 5 0 0 0-2.1-.41c-1.03 0-1.99.27-2.86.82a5.76 5.76 0 0 0-2.42 3.37ZM85.79 70.13v-29.4h5.37V56.9l7.8-7.72h6.6v.33l-7.92 7.76 8.28 12.53v.33h-6.35l-5.74-9.16-2.67 2.59v6.57h-5.37ZM107.87 70.13v-29.4h5.37v29.4h-5.37ZM125.9 78.06c-.09.19-.17.35-.26.49l-.16.45h-5.78c.1-.22.31-.68.61-1.4a69.04 69.04 0 0 0 1.4-3.04l.65-1.56.58-1.15 1.23-2.7-8.82-19.97h6.11l5.42 13.02h.32l5.21-13.02h5.99l-10.79 24.9c-.3.7-.57 1.32-.82 1.84a243.54 243.54 0 0 0-.9 2.14Z"></path>
  
</svg>
